<?xml version="1.0" encoding="utf-8"?>
<!-- Generator: Adobe Illustrator 16.0.0, SVG Export Plug-In . SVG Version: 6.00 Build 0)  -->
<!DOCTYPE svg PUBLIC "-//W3C//DTD SVG 1.1//EN" "http://www.w3.org/Graphics/SVG/1.1/DTD/svg11.dtd">
<svg version="1.1" id="Layer_1" xmlns="http://www.w3.org/2000/svg" xmlns:xlink="http://www.w3.org/1999/xlink" x="0px" y="0px"
	 width="126px" height="153.588px" viewBox="0 0 126 153.588" enable-background="new 0 0 126 153.588" xml:space="preserve">
<g>
	<path fill="#F8BE18" d="M45.432,122.692c-6.059-1.789-8.676-10.646-13.621-14.041c-5.119-3.518-14.291-2.838-17.996-7.668
		c-3.74-4.877-0.697-13.584-2.762-19.371c-2.045-5.735-9.926-10.55-10.098-16.761c-0.168-5.996,7.367-11.234,9.154-17.294
		c1.789-6.059-1.693-14.549,1.703-19.494c3.516-5.12,12.75-4.887,17.58-8.592c4.877-3.74,7.051-12.701,12.838-14.768
		c5.734-2.044,13.066,3.504,19.275,3.332c5.998-0.167,13.002-6.182,19.062-4.395c6.061,1.788,8.678,10.644,13.621,14.038
		c5.121,3.52,14.293,2.841,17.996,7.67c3.739,4.878,0.698,13.585,2.766,19.371c2.043,5.733,9.926,10.552,10.098,16.76
		c0.168,6-7.365,11.235-9.154,17.295c-1.787,6.06,1.693,14.551-1.701,19.496c-3.52,5.117-12.752,4.885-17.582,8.59
		c-4.875,3.738-7.049,12.703-12.836,14.769c-5.733,2.045-13.067-3.506-19.276-3.332C58.494,118.465,51.49,124.478,45.432,122.692z"
		/>
	<g>
		<path fill="#084965" d="M63,125.229c-6.318,0-11.332-7.752-17.037-9.609c-5.906-1.924-14.512,1.322-19.432-2.262
			c-4.967-3.617-4.514-12.83-8.133-17.797c-3.584-4.92-12.506-7.313-14.43-13.217c-1.857-5.704,3.887-12.862,3.887-19.18
			c0-6.316-5.744-13.475-3.887-19.18c1.924-5.905,10.846-8.295,14.43-13.215c3.619-4.969,3.166-14.181,8.133-17.799
			c4.92-3.583,13.525-0.338,19.432-2.261C51.668,8.855,56.682,1.103,63,1.103c6.316,0,11.332,7.753,17.037,9.609
			c5.906,1.923,14.512-1.322,19.432,2.263c4.967,3.616,4.514,12.828,8.133,17.797c3.584,4.92,12.506,7.31,14.433,13.215
			c1.854,5.705-3.89,12.863-3.89,19.18c0,6.315,5.744,13.476,3.89,19.182c-1.927,5.904-10.849,8.297-14.435,13.217
			c-3.617,4.967-3.164,14.178-8.131,17.797c-4.92,3.584-13.525,0.336-19.432,2.26C74.332,117.478,69.316,125.229,63,125.229z"/>
	</g>
	<g>
		<path fill="#FFFFFF" d="M18.908,53.125l1.186-2.892l1.003,0.412l-1.719,4.193l-6.497-2.666l0.536-1.303L18.908,53.125z"/>
		<path fill="#FFFFFF" d="M22.562,44.981l-1.263,2.115l1.054,1.187l-0.729,1.221l-4.788-5.675l0.74-1.238l7.261,1.536l-0.73,1.221
			L22.562,44.981z M20.529,46.232l0.907-1.52l-2.812-0.67l-0.017,0.024L20.529,46.232z"/>
		<path fill="#FFFFFF" d="M25.78,42.868l-5.38-4.51l1.524-1.818c0.531-0.633,1.069-1.022,1.612-1.171
			c0.543-0.149,1.062-0.017,1.551,0.393c0.249,0.209,0.417,0.461,0.502,0.758c0.084,0.296,0.07,0.61-0.041,0.944
			c0.34-0.264,0.691-0.383,1.053-0.354c0.362,0.028,0.692,0.168,0.99,0.418c0.516,0.432,0.761,0.929,0.742,1.49
			c-0.021,0.563-0.292,1.155-0.813,1.778L25.78,42.868z M23.558,39.17l0.651-0.775c0.24-0.29,0.368-0.561,0.381-0.814
			c0.01-0.254-0.096-0.477-0.321-0.665c-0.251-0.208-0.499-0.285-0.75-0.227c-0.25,0.057-0.504,0.239-0.763,0.55l-0.62,0.739
			L23.558,39.17z M24.303,39.794l1.55,1.299l0.831-0.994c0.241-0.284,0.361-0.555,0.362-0.811c0.002-0.253-0.117-0.482-0.361-0.686
			c-0.263-0.221-0.519-0.324-0.763-0.313c-0.248,0.012-0.485,0.156-0.716,0.433L24.303,39.794z"/>
		<path fill="#FFFFFF" d="M31.755,32.224l-2.172,1.938l1.332,1.493l2.538-2.262l0.721,0.809l-3.588,3.2l-4.672-5.24l3.581-3.194
			l0.722,0.812l-2.529,2.256l1.172,1.317l2.171-1.936L31.755,32.224z"/>
		<path fill="#FFFFFF" d="M36.212,31.438l2.6-1.732l0.602,0.901l-3.772,2.514l-3.893-5.844l1.17-0.779L36.212,31.438z"/>
		<path fill="#FFFFFF" d="M47.04,25.452l-2.302,0.879l0.093,1.585l-1.328,0.508l-0.249-7.421l1.347-0.515l4.754,5.7l-1.329,0.507
			L47.04,25.452z M44.667,25.176l1.653-0.631l-1.795-2.267l-0.026,0.01L44.667,25.176z"/>
		<path fill="#FFFFFF" d="M52.85,23.465l0.164,0.355l0.027-0.006l0.003-0.379l0.425-5.37l1.452-0.309l-0.879,7.363l-1.415,0.299
			l-3.786-6.375l1.452-0.307L52.85,23.465z"/>
		<path fill="#FFFFFF" d="M59.525,24.383l-1.403,0.127l-0.629-6.994l1.404-0.126L59.525,24.383z"/>
		<path fill="#FFFFFF" d="M65.74,22.485c0.009-0.271-0.079-0.489-0.268-0.659c-0.188-0.169-0.52-0.334-0.99-0.492
			c-0.828-0.267-1.453-0.571-1.87-0.915c-0.417-0.343-0.618-0.803-0.602-1.378c0.018-0.575,0.277-1.038,0.778-1.388
			c0.5-0.35,1.132-0.515,1.896-0.491c0.771,0.023,1.392,0.247,1.863,0.67c0.475,0.424,0.692,0.938,0.659,1.536l-0.013,0.028
			l-1.361-0.04c0.012-0.325-0.092-0.592-0.302-0.8c-0.214-0.207-0.515-0.316-0.904-0.328c-0.378-0.012-0.669,0.063-0.88,0.225
			c-0.211,0.16-0.321,0.371-0.329,0.63c-0.007,0.239,0.099,0.438,0.313,0.596c0.215,0.159,0.593,0.333,1.127,0.52
			c0.767,0.238,1.346,0.54,1.73,0.906c0.389,0.365,0.574,0.835,0.557,1.408c-0.018,0.603-0.269,1.069-0.754,1.402
			c-0.481,0.332-1.115,0.487-1.894,0.464c-0.765-0.022-1.425-0.24-1.982-0.648c-0.558-0.412-0.818-0.973-0.781-1.683l0.011-0.026
			l1.369,0.041c-0.013,0.417,0.107,0.727,0.355,0.929c0.25,0.203,0.603,0.31,1.06,0.323c0.383,0.013,0.676-0.059,0.885-0.209
			C65.627,22.958,65.73,22.75,65.74,22.485z"/>
		<path fill="#FFFFFF" d="M78.277,24.245l0.002,0.031c-0.184,0.732-0.562,1.253-1.135,1.558c-0.569,0.306-1.264,0.351-2.076,0.133
			c-0.818-0.218-1.411-0.66-1.78-1.319c-0.368-0.661-0.442-1.405-0.222-2.231l0.36-1.346c0.222-0.823,0.649-1.434,1.286-1.827
			c0.641-0.395,1.354-0.485,2.15-0.272c0.841,0.225,1.437,0.615,1.794,1.172c0.356,0.556,0.43,1.203,0.218,1.942l-0.018,0.025
			l-1.322-0.354c0.119-0.448,0.104-0.818-0.049-1.113c-0.148-0.296-0.45-0.503-0.903-0.624c-0.405-0.109-0.772-0.03-1.104,0.234
			c-0.326,0.268-0.561,0.657-0.694,1.168l-0.363,1.354c-0.138,0.518-0.126,0.976,0.035,1.374c0.164,0.396,0.462,0.652,0.892,0.768
			c0.426,0.114,0.771,0.084,1.031-0.089c0.268-0.173,0.458-0.485,0.579-0.936L78.277,24.245z"/>
		<path fill="#FFFFFF" d="M84.657,26.136l-2.667-1.165l-0.801,1.833l3.115,1.361l-0.435,0.994l-4.405-1.925l2.813-6.435l4.396,1.92
			l-0.437,0.995l-3.104-1.356l-0.708,1.617l2.666,1.164L84.657,26.136z"/>
		<path fill="#FFFFFF" d="M88.16,28.395l-1.502,2.37l-1.19-0.754l3.761-5.931l2.234,1.417c0.678,0.427,1.107,0.917,1.292,1.467
			c0.188,0.549,0.106,1.102-0.241,1.652c-0.197,0.307-0.439,0.519-0.742,0.638c-0.299,0.117-0.646,0.147-1.043,0.087
			c0.285,0.325,0.431,0.658,0.431,0.996c0,0.339-0.113,0.688-0.341,1.042l-0.273,0.437c-0.104,0.166-0.191,0.352-0.262,0.562
			c-0.07,0.208-0.077,0.393-0.023,0.548l-0.054,0.085l-1.229-0.775c-0.054-0.156-0.031-0.347,0.064-0.57
			c0.098-0.226,0.204-0.427,0.316-0.609l0.267-0.419c0.188-0.296,0.253-0.576,0.198-0.843c-0.061-0.267-0.233-0.493-0.527-0.678
			L88.16,28.395z M88.74,27.478l1.027,0.649c0.334,0.211,0.627,0.298,0.881,0.262c0.254-0.036,0.471-0.193,0.645-0.472
			c0.172-0.271,0.227-0.539,0.163-0.804c-0.063-0.265-0.252-0.497-0.573-0.7l-1.047-0.663L88.74,27.478z"/>
		<path fill="#FFFFFF" d="M99.081,32.74l-1.506-1.296l-3.873,4.498l-1.067-0.919l3.874-4.499l-1.5-1.291l0.712-0.822l4.068,3.505
			L99.081,32.74z"/>
		<path fill="#FFFFFF" d="M97.43,39.646l-0.957-1.035l5.148-4.771l0.959,1.032L97.43,39.646z"/>
		<path fill="#FFFFFF" d="M103.927,43.2l-1.739-2.373l-2.354,1.726l-0.831-1.136l5.66-4.152l2.862,3.905l-0.875,0.643l-2.029-2.769
			l-1.559,1.144l1.736,2.373L103.927,43.2z"/>
		<path fill="#FFFFFF" d="M103.523,48.235l-0.696-1.224l6.1-3.474l0.697,1.224L103.523,48.235z"/>
		<path fill="#FFFFFF" d="M109.191,53.102l-1.143-2.676l-1.839,0.785l1.332,3.128l-0.997,0.425l-1.887-4.422l6.461-2.754
			l1.882,4.414l-0.999,0.425l-1.328-3.118l-1.624,0.692l1.142,2.674L109.191,53.102z"/>
	</g>
	<g>
		<g>
			<g>
				<path fill="#FFFFFF" d="M18.117,72.217c1.595,0,2.951,0.562,4.067,1.677c0.271,0.303,0.396,0.661,0.372,1.077
					c-0.024,0.414-0.18,0.757-0.467,1.027s-0.654,0.416-1.101,0.432c-0.446,0.019-0.813-0.127-1.1-0.432
					c-0.495-0.445-1.085-0.668-1.771-0.668c-0.367,0-0.714,0.073-1.041,0.225c-0.326,0.152-0.614,0.353-0.861,0.601
					c-0.247,0.248-0.443,0.531-0.585,0.85c-0.144,0.318-0.216,0.652-0.216,1.002c0,0.367,0.072,0.72,0.216,1.043
					c0.142,0.324,0.341,0.615,0.597,0.861c0.255,0.248,0.542,0.44,0.861,0.586c0.319,0.146,0.662,0.207,1.028,0.192
					c0.702,0,1.292-0.215,1.771-0.646c0.287-0.317,0.654-0.479,1.1-0.479c0.446,0,0.814,0.16,1.101,0.479
					c0.144,0.129,0.255,0.279,0.335,0.453c0.079,0.178,0.123,0.36,0.131,0.551c0.008,0.188-0.02,0.38-0.084,0.563
					c-0.064,0.185-0.16,0.349-0.288,0.488c-0.557,0.561-1.172,0.981-1.842,1.268c-0.669,0.289-1.411,0.433-2.225,0.433
					c-0.797,0-1.547-0.153-2.248-0.467c-0.702-0.31-1.316-0.728-1.842-1.254c-0.527-0.524-0.945-1.144-1.256-1.841
					c-0.311-0.705-0.466-1.444-0.466-2.229c0-0.762,0.156-1.494,0.466-2.198c0.312-0.701,0.733-1.314,1.268-1.843
					c0.534-0.524,1.152-0.948,1.854-1.267C16.594,72.379,17.336,72.217,18.117,72.217z"/>
				<path fill="#FFFFFF" d="M25.294,72.194c0.414,0,0.781,0.156,1.1,0.468c0.319,0.311,0.479,0.688,0.479,1.137v4.207
					c0,0.367,0.072,0.72,0.215,1.043c0.144,0.324,0.335,0.611,0.574,0.851c0.239,0.238,0.522,0.433,0.849,0.576
					c0.328,0.142,0.674,0.215,1.041,0.215c0.351,0,0.686-0.063,1.005-0.192c0.318-0.125,0.603-0.304,0.849-0.526
					c0.247-0.224,0.443-0.496,0.586-0.812c0.143-0.318,0.214-0.662,0.214-1.029v-4.355c0-0.317,0.08-0.59,0.24-0.813
					c0.032-0.045,0.068-0.097,0.108-0.144c0.04-0.047,0.083-0.096,0.131-0.143c0.288-0.32,0.646-0.479,1.077-0.479
					c0.431,0,0.806,0.158,1.125,0.479c0.302,0.303,0.462,0.645,0.479,1.027v4.305c0,0.8-0.152,1.55-0.456,2.252
					c-0.303,0.701-0.717,1.316-1.244,1.841c-0.526,0.526-1.141,0.942-1.842,1.246c-0.701,0.303-1.459,0.452-2.273,0.452
					c-0.765,0.035-1.499-0.1-2.201-0.396c-0.702-0.293-1.32-0.696-1.854-1.215c-0.535-0.519-0.962-1.127-1.28-1.82
					c-0.319-0.694-0.479-1.422-0.479-2.19v-4.399c0-0.414,0.148-0.777,0.442-1.088C24.476,72.375,24.847,72.211,25.294,72.194z"/>
				<path fill="#FFFFFF" d="M44.384,72.17c0.431,0,0.791,0.164,1.078,0.492c0.286,0.325,0.43,0.674,0.43,1.038
					c0,0.416-0.155,0.777-0.466,1.091c-0.312,0.312-0.659,0.467-1.042,0.467H40.27c-0.191,0-0.338,0.056-0.442,0.166
					c-0.104,0.11-0.155,0.248-0.155,0.408c0,0.159,0.051,0.299,0.155,0.418s0.25,0.18,0.442,0.18h2.704
					c0.494,0,0.953,0.103,1.375,0.298c0.423,0.202,0.79,0.473,1.1,0.813c0.312,0.344,0.554,0.731,0.73,1.174
					c0.175,0.438,0.263,0.896,0.263,1.377c0,0.539-0.095,1.039-0.286,1.494c-0.192,0.455-0.455,0.845-0.79,1.172
					c-0.335,0.324-0.734,0.582-1.197,0.767s-0.972,0.272-1.53,0.272h-4.044c-0.414,0-0.766-0.144-1.053-0.433
					c-0.286-0.284-0.43-0.651-0.43-1.1c0-0.396,0.144-0.761,0.43-1.089c0.287-0.323,0.639-0.497,1.053-0.514h4.044
					c0.43,0,0.645-0.188,0.645-0.572c0-0.366-0.215-0.555-0.645-0.555h-2.632c-0.479,0-0.93-0.101-1.352-0.295
					c-0.423-0.199-0.79-0.468-1.1-0.806c-0.312-0.334-0.556-0.724-0.73-1.169c-0.175-0.447-0.264-0.929-0.264-1.437
					c0-0.479,0.092-0.938,0.275-1.377c0.184-0.439,0.435-0.826,0.754-1.16c0.318-0.336,0.694-0.604,1.124-0.802
					c0.431-0.198,0.902-0.307,1.412-0.323h4.258V72.17z"/>
				<path fill="#FFFFFF" d="M49.288,68.51c0.446,0,0.821,0.154,1.125,0.468c0.303,0.313,0.47,0.696,0.502,1.161v1.818h4.594
					c0.461,0,0.837,0.157,1.124,0.478c0.287,0.319,0.431,0.694,0.431,1.125c0,0.413-0.159,0.786-0.479,1.11
					c-0.319,0.328-0.679,0.492-1.076,0.492h-4.594v2.728c0,0.368,0.067,0.713,0.204,1.041c0.135,0.327,0.323,0.616,0.562,0.875
					c0.24,0.254,0.522,0.452,0.85,0.596c0.326,0.146,0.681,0.216,1.064,0.216c0.414,0,0.769-0.056,1.065-0.164
					c0.295-0.115,0.554-0.279,0.777-0.504c0.335-0.287,0.706-0.437,1.112-0.445c0.407-0.006,0.787,0.152,1.136,0.468
					c0.159,0.145,0.28,0.309,0.359,0.491c0.08,0.185,0.123,0.373,0.132,0.572c0.008,0.202-0.021,0.396-0.084,0.59
					c-0.064,0.188-0.167,0.354-0.311,0.498c-0.559,0.547-1.172,0.959-1.841,1.244c-0.671,0.289-1.388,0.432-2.154,0.432
					c-0.83,0-1.611-0.139-2.345-0.418c-0.733-0.278-1.38-0.676-1.938-1.192c-0.559-0.519-1.001-1.144-1.327-1.869
					c-0.327-0.728-0.499-1.535-0.515-2.428V70.02c0-0.433,0.164-0.789,0.49-1.076C48.479,68.653,48.858,68.51,49.288,68.51z"/>
			</g>
		</g>
		<g>
			<g>
				<path fill="#FFFFFF" d="M65.277,72.207c0.781,0,1.521,0.149,2.226,0.455c0.701,0.301,1.315,0.717,1.84,1.241
					c0.527,0.525,0.946,1.144,1.259,1.843c0.31,0.702,0.467,1.452,0.467,2.252c0,0.797-0.147,1.547-0.443,2.248
					c-0.296,0.7-0.701,1.313-1.221,1.842c-0.518,0.524-1.133,0.938-1.844,1.242c-0.709,0.308-1.47,0.457-2.283,0.457
					c-0.988,0-1.881-0.203-2.678-0.599v2.75c0,0.414-0.151,0.774-0.455,1.076c-0.303,0.303-0.678,0.454-1.124,0.454
					c-0.399,0-0.753-0.139-1.065-0.418c-0.311-0.28-0.474-0.629-0.49-1.043v-8.011c0-0.783,0.156-1.525,0.466-2.228
					c0.311-0.703,0.73-1.313,1.256-1.842c0.527-0.527,1.141-0.945,1.842-1.256C63.73,72.36,64.479,72.207,65.277,72.207z
					 M62.597,77.998c0,0.397,0.071,0.762,0.215,1.086c0.144,0.328,0.338,0.61,0.586,0.854c0.247,0.236,0.534,0.424,0.861,0.559
					c0.328,0.139,0.667,0.203,1.019,0.203c0.384,0,0.732-0.07,1.053-0.215c0.316-0.145,0.6-0.338,0.84-0.586
					c0.237-0.248,0.424-0.535,0.561-0.859c0.135-0.33,0.207-0.676,0.207-1.041c0-0.367-0.074-0.715-0.217-1.043
					c-0.146-0.324-0.336-0.607-0.576-0.848c-0.236-0.24-0.519-0.429-0.836-0.564c-0.318-0.135-0.662-0.203-1.029-0.203
					c-0.383,0-0.736,0.074-1.064,0.217c-0.326,0.146-0.609,0.334-0.85,0.574c-0.239,0.238-0.427,0.518-0.562,0.838
					C62.666,77.287,62.597,77.631,62.597,77.998z"/>
				<path fill="#FFFFFF" d="M73.531,68.545c0.431,0,0.791,0.151,1.087,0.455c0.296,0.303,0.46,0.68,0.491,1.127v9.448
					c0,0.318,0.104,0.591,0.31,0.814c0.209,0.221,0.474,0.329,0.792,0.329c0.414,0,0.773,0.146,1.087,0.433
					c0.312,0.289,0.476,0.646,0.492,1.078c0,0.383-0.132,0.721-0.396,1.017c-0.266,0.297-0.604,0.478-1.019,0.541h-0.335
					c-0.561,0-1.087-0.115-1.579-0.349c-0.495-0.229-0.93-0.541-1.306-0.92c-0.373-0.384-0.67-0.83-0.887-1.343
					c-0.215-0.508-0.319-1.045-0.319-1.602v-9.547c0.048-0.398,0.215-0.742,0.501-1.029C72.736,68.711,73.1,68.563,73.531,68.545z"
					/>
				<path fill="#FFFFFF" d="M84.583,72.207c0.718,0.08,1.394,0.287,2.021,0.623c0.631,0.334,1.174,0.762,1.627,1.28
					c0.457,0.519,0.814,1.107,1.078,1.769c0.266,0.664,0.395,1.358,0.395,2.097v4.231c0,0.428-0.158,0.799-0.479,1.103
					c-0.32,0.301-0.679,0.453-1.076,0.453c-0.561,0-1.004-0.255-1.338-0.767c-0.082,0.03-0.156,0.069-0.217,0.104
					c-0.064,0.043-0.129,0.078-0.193,0.108c-0.383,0.179-0.771,0.31-1.17,0.408c-0.416,0.094-0.854,0.143-1.314,0.143
					c-1.195,0-2.266-0.321-3.207-0.969s-1.645-1.479-2.104-2.502c-0.16-0.367-0.285-0.74-0.373-1.123
					c-0.086-0.383-0.131-0.781-0.131-1.192c0-0.418,0.045-0.814,0.131-1.2c0.088-0.383,0.213-0.758,0.373-1.123
					c0.461-1.037,1.162-1.873,2.104-2.512c0.941-0.639,2.012-0.957,3.207-0.957c0.126,0,0.241,0,0.35,0
					C84.363,72.185,84.471,72.192,84.583,72.207z M83.889,80.651c0.366,0,0.715-0.066,1.043-0.203
					c0.324-0.135,0.61-0.32,0.851-0.563c0.235-0.237,0.431-0.521,0.571-0.846c0.146-0.33,0.215-0.687,0.215-1.063
					c0-0.354-0.069-0.69-0.215-1.021c-0.143-0.324-0.338-0.615-0.586-0.859c-0.248-0.25-0.533-0.442-0.86-0.588
					c-0.325-0.144-0.666-0.215-1.019-0.215c-0.351,0-0.686,0.071-1.004,0.215c-0.318,0.146-0.602,0.338-0.849,0.588
					c-0.248,0.244-0.444,0.535-0.586,0.859c-0.146,0.327-0.216,0.666-0.216,1.021c0,0.366,0.074,0.711,0.226,1.039
					c0.151,0.327,0.351,0.606,0.599,0.851c0.248,0.237,0.53,0.428,0.851,0.571C83.227,80.58,83.555,80.651,83.889,80.651z"/>
				<path fill="#FFFFFF" d="M96.616,72.185c1.596,0,2.95,0.557,4.065,1.674c0.271,0.305,0.396,0.664,0.373,1.076
					c-0.025,0.416-0.182,0.76-0.471,1.026c-0.286,0.272-0.652,0.418-1.102,0.433c-0.442,0.016-0.812-0.13-1.101-0.433
					c-0.495-0.444-1.084-0.668-1.771-0.668c-0.365,0-0.713,0.076-1.041,0.229c-0.324,0.149-0.614,0.35-0.858,0.598
					c-0.248,0.248-0.444,0.529-0.589,0.85c-0.143,0.318-0.216,0.652-0.216,1.005c0,0.367,0.073,0.711,0.216,1.039
					c0.145,0.328,0.344,0.615,0.6,0.859c0.256,0.25,0.543,0.443,0.86,0.588s0.663,0.209,1.028,0.189
					c0.701,0,1.291-0.215,1.771-0.646c0.289-0.318,0.656-0.477,1.101-0.477c0.447,0,0.813,0.158,1.102,0.477
					c0.146,0.129,0.257,0.279,0.335,0.457c0.08,0.174,0.125,0.361,0.136,0.551c0.006,0.193-0.021,0.379-0.084,0.559
					c-0.063,0.188-0.16,0.354-0.289,0.496c-0.561,0.559-1.17,0.979-1.845,1.266c-0.669,0.289-1.407,0.432-2.224,0.432
					c-0.797,0-1.547-0.152-2.247-0.467c-0.704-0.311-1.318-0.729-1.845-1.254c-0.522-0.527-0.944-1.145-1.254-1.845
					c-0.313-0.7-0.467-1.442-0.467-2.224c0-0.77,0.154-1.501,0.467-2.203c0.31-0.703,0.732-1.313,1.269-1.842
					c0.534-0.527,1.149-0.949,1.854-1.268C95.092,72.344,95.835,72.185,96.616,72.185z"/>
				<path fill="#FFFFFF" d="M107.907,72.185c0.766,0,1.499,0.159,2.202,0.479c0.701,0.318,1.317,0.746,1.854,1.277
					c0.534,0.537,0.959,1.149,1.28,1.844c0.317,0.695,0.478,1.422,0.478,2.19c0,0.412-0.156,0.778-0.465,1.101
					c-0.313,0.317-0.697,0.471-1.16,0.452h-6.365c0.526,0.75,1.25,1.123,2.179,1.123c0.257,0,0.47-0.021,0.646-0.069
					s0.33-0.104,0.465-0.168c0.138-0.063,0.271-0.121,0.405-0.166c0.14-0.049,0.293-0.069,0.47-0.069
					c0.336,0.016,0.625,0.106,0.873,0.284c0.246,0.175,0.432,0.396,0.549,0.656c0.119,0.264,0.162,0.547,0.119,0.85
					c-0.039,0.304-0.18,0.582-0.418,0.841c-0.432,0.35-0.906,0.592-1.435,0.727c-0.526,0.14-1.084,0.216-1.676,0.229
					c-0.767,0.031-1.499-0.105-2.2-0.418s-1.318-0.732-1.854-1.268c-0.537-0.535-0.959-1.162-1.271-1.88
					c-0.309-0.718-0.466-1.462-0.466-2.224c0-0.75,0.157-1.477,0.466-2.178c0.313-0.703,0.73-1.32,1.258-1.857
					c0.524-0.531,1.139-0.959,1.844-1.276C106.387,72.344,107.125,72.185,107.907,72.185z M110.085,76.394
					c-0.271-0.332-0.589-0.601-0.956-0.8c-0.365-0.2-0.773-0.301-1.222-0.301c-0.464,0-0.872,0.101-1.232,0.301
					c-0.356,0.199-0.672,0.468-0.944,0.8H110.085z"/>
			</g>
		</g>
	</g>
	<polygon id="XMLID_7_" fill="#FFFFFF" points="63.001,38.444 65.855,45.244 73.202,45.858 67.621,50.674 69.307,57.854 
		63.001,54.032 56.695,57.854 58.381,50.674 52.796,45.858 60.146,45.244 	"/>
	<polygon id="XMLID_6_" fill="#FFFFFF" points="41.092,45.331 43.186,50.314 48.571,50.763 44.478,54.294 45.714,59.555 
		41.092,56.753 36.469,59.555 37.705,54.294 33.613,50.763 39,50.314 	"/>
	<polygon id="XMLID_4_" fill="#FFFFFF" points="84.91,45.331 82.813,50.314 77.434,50.763 81.521,54.294 80.287,59.555 
		84.91,56.753 89.533,59.555 88.295,54.294 92.387,50.763 87.002,50.314 	"/>
</g>
<polygon fill="#FFFFFF" stroke="#F7BD18" stroke-width="2" stroke-linecap="round" stroke-linejoin="round" stroke-miterlimit="10" points="
	106.643,151.897 63.107,144.91 19.57,151.897 19.57,97.588 106.643,97.588 "/>
<rect x="77.666" y="131.237" fill="#FFFFFF" width="2.418" height="1.957"/>
</svg>
