<?xml version="1.0" encoding="utf-8"?>
<!-- Generator: Adobe Illustrator 16.0.0, SVG Export Plug-In . SVG Version: 6.00 Build 0)  -->
<!DOCTYPE svg PUBLIC "-//W3C//DTD SVG 1.1//EN" "http://www.w3.org/Graphics/SVG/1.1/DTD/svg11.dtd">
<svg version="1.1" id="Layer_1" xmlns="http://www.w3.org/2000/svg" xmlns:xlink="http://www.w3.org/1999/xlink" x="0px" y="0px"
	 width="128px" height="170px" viewBox="0 0 128 170" enable-background="new 0 0 128 170" xml:space="preserve">
<g>
	<path fill="#F6BE1A" d="M46.118,124.518c-6.167-1.821-8.831-10.837-13.864-14.292c-5.21-3.581-14.546-2.889-18.317-7.805
		c-3.807-4.964-0.709-13.827-2.811-19.718C9.043,76.865,1.022,71.965,0.847,65.643C0.676,59.54,8.345,54.208,10.164,48.04
		c1.821-6.167-1.723-14.81,1.734-19.843c3.579-5.211,12.978-4.975,17.894-8.745c4.964-3.807,7.177-12.928,13.067-15.031
		c5.836-2.081,13.299,3.566,19.619,3.392C68.583,7.642,75.712,1.52,81.88,3.339c6.17,1.819,8.834,10.834,13.864,14.288
		c5.213,3.583,14.549,2.892,18.318,7.808c3.806,4.965,0.71,13.827,2.815,19.716c2.079,5.836,10.104,10.741,10.278,17.061
		c0.171,6.106-7.496,11.436-9.317,17.604c-1.818,6.167,1.723,14.811-1.731,19.844c-3.583,5.209-12.979,4.973-17.896,8.743
		c-4.962,3.806-7.175,12.931-13.065,15.032c-5.836,2.082-13.301-3.568-19.621-3.392C59.414,120.215,52.285,126.334,46.118,124.518z"
		/>
	<g>
		<path fill="#0C4A65" d="M64,127.1c-6.431,0-11.535-7.891-17.341-9.781c-6.011-1.958-14.771,1.347-19.779-2.302
			c-5.056-3.682-4.595-13.06-8.279-18.114c-3.648-5.008-12.729-7.444-14.688-13.454C2.023,77.643,7.87,70.356,7.87,63.926
			c0-6.429-5.847-13.716-3.957-19.522c1.958-6.011,11.04-8.443,14.688-13.451c3.684-5.059,3.223-14.435,8.279-18.117
			c5.008-3.646,13.767-0.344,19.779-2.302C52.465,8.646,57.569,0.756,64,0.756c6.43,0,11.534,7.892,17.342,9.78
			c6.012,1.958,14.771-1.345,19.778,2.304c5.056,3.681,4.595,13.058,8.278,18.115c3.647,5.008,12.729,7.44,14.691,13.451
			c1.887,5.807-3.96,13.093-3.96,19.522c0,6.428,5.847,13.717,3.96,19.524c-1.963,6.01-11.044,8.445-14.693,13.453
			c-3.682,5.057-3.221,14.432-8.276,18.114c-5.008,3.649-13.767,0.343-19.778,2.302C75.534,119.209,70.43,127.1,64,127.1z"/>
	</g>
	<g>
		<path fill="#FFFFFF" d="M19.121,53.707l1.207-2.943l1.021,0.419l-1.75,4.269l-6.613-2.714l0.545-1.326L19.121,53.707z"/>
		<path fill="#FFFFFF" d="M22.84,45.418l-1.286,2.152l1.073,1.209l-0.742,1.242l-4.874-5.776l0.753-1.26l7.391,1.563l-0.743,1.242
			L22.84,45.418z M20.77,46.691l0.924-1.548l-2.862-0.682l-0.018,0.024L20.77,46.691z"/>
		<path fill="#FFFFFF" d="M26.115,43.268l-5.476-4.591l1.551-1.851c0.541-0.645,1.089-1.04,1.641-1.192
			c0.553-0.151,1.081-0.017,1.579,0.4c0.253,0.213,0.424,0.47,0.511,0.771c0.086,0.301,0.072,0.621-0.042,0.961
			c0.346-0.269,0.703-0.39,1.072-0.36c0.369,0.028,0.705,0.171,1.008,0.425c0.525,0.44,0.775,0.946,0.755,1.518
			c-0.021,0.573-0.297,1.175-0.828,1.81L26.115,43.268z M23.854,39.503l0.663-0.789c0.245-0.295,0.375-0.57,0.388-0.828
			c0.01-0.259-0.098-0.485-0.327-0.677c-0.255-0.212-0.508-0.29-0.763-0.231c-0.254,0.059-0.513,0.243-0.777,0.56l-0.631,0.753
			L23.854,39.503z M24.612,40.138l1.578,1.322l0.846-1.012c0.245-0.289,0.367-0.564,0.368-0.825c0.002-0.257-0.119-0.49-0.367-0.698
			c-0.268-0.225-0.528-0.33-0.777-0.318c-0.252,0.012-0.494,0.158-0.729,0.44L24.612,40.138z"/>
		<path fill="#FFFFFF" d="M32.197,32.433l-2.21,1.973l1.355,1.52l2.583-2.302l0.734,0.823l-3.652,3.257l-4.755-5.333l3.645-3.252
			l0.735,0.827l-2.574,2.297l1.193,1.34l2.21-1.971L32.197,32.433z"/>
		<path fill="#FFFFFF" d="M36.733,31.633l2.646-1.763l0.613,0.917l-3.839,2.559l-3.962-5.948l1.191-0.793L36.733,31.633z"/>
		<path fill="#FFFFFF" d="M47.755,25.54l-2.343,0.895l0.095,1.613l-1.352,0.517l-0.253-7.553l1.371-0.524l4.839,5.802l-1.353,0.516
			L47.755,25.54z M45.339,25.259l1.683-0.643l-1.827-2.307l-0.026,0.01L45.339,25.259z"/>
		<path fill="#FFFFFF" d="M53.669,23.518l0.167,0.361l0.027-0.006l0.003-0.386l0.432-5.467l1.478-0.314l-0.895,7.495l-1.44,0.304
			l-3.854-6.488l1.478-0.313L53.669,23.518z"/>
		<path fill="#FFFFFF" d="M60.463,24.452l-1.428,0.129l-0.64-7.119l1.429-0.128L60.463,24.452z"/>
		<path fill="#FFFFFF" d="M66.789,22.52c0.009-0.275-0.08-0.497-0.272-0.67c-0.191-0.172-0.529-0.34-1.008-0.501
			c-0.843-0.272-1.479-0.581-1.904-0.932c-0.424-0.349-0.629-0.817-0.613-1.402c0.018-0.586,0.282-1.057,0.792-1.413
			c0.509-0.355,1.152-0.523,1.93-0.5c0.785,0.023,1.417,0.252,1.896,0.683c0.483,0.431,0.705,0.954,0.671,1.563l-0.013,0.028
			l-1.386-0.041c0.012-0.33-0.094-0.603-0.309-0.814c-0.217-0.21-0.522-0.321-0.919-0.334c-0.385-0.012-0.681,0.064-0.896,0.229
			c-0.214,0.163-0.327,0.378-0.335,0.642c-0.007,0.242,0.101,0.445,0.319,0.606s0.603,0.339,1.147,0.529
			c0.78,0.242,1.37,0.55,1.761,0.922c0.396,0.372,0.584,0.85,0.567,1.434c-0.02,0.613-0.274,1.088-0.768,1.427
			c-0.49,0.338-1.135,0.495-1.929,0.472c-0.779-0.021-1.45-0.243-2.017-0.659c-0.568-0.419-0.833-0.99-0.795-1.713l0.011-0.026
			l1.393,0.042c-0.013,0.424,0.109,0.739,0.361,0.945c0.254,0.206,0.614,0.315,1.079,0.329c0.391,0.013,0.688-0.061,0.901-0.213
			C66.674,23.001,66.779,22.79,66.789,22.52z"/>
		<path fill="#FFFFFF" d="M79.55,24.312l0.002,0.031c-0.187,0.745-0.572,1.275-1.154,1.586c-0.58,0.312-1.287,0.357-2.113,0.136
			c-0.833-0.222-1.437-0.672-1.813-1.343c-0.375-0.673-0.45-1.43-0.226-2.271l0.366-1.371c0.227-0.837,0.661-1.459,1.309-1.858
			c0.653-0.402,1.379-0.494,2.188-0.277c0.856,0.229,1.463,0.626,1.826,1.193c0.362,0.565,0.438,1.225,0.222,1.977l-0.019,0.024
			l-1.345-0.359c0.12-0.456,0.106-0.833-0.051-1.133c-0.15-0.302-0.457-0.513-0.919-0.636c-0.412-0.11-0.785-0.03-1.123,0.238
			c-0.332,0.272-0.571,0.669-0.706,1.188l-0.37,1.379c-0.141,0.527-0.128,0.993,0.036,1.398c0.167,0.403,0.47,0.663,0.907,0.781
			c0.434,0.116,0.785,0.086,1.05-0.09c0.272-0.176,0.466-0.494,0.589-0.953L79.55,24.312z"/>
		<path fill="#FFFFFF" d="M86.044,26.236l-2.715-1.186l-0.814,1.865l3.171,1.386l-0.443,1.012l-4.484-1.96l2.864-6.55l4.474,1.954
			l-0.444,1.013l-3.16-1.38l-0.721,1.646l2.714,1.185L86.044,26.236z"/>
		<path fill="#FFFFFF" d="M89.609,28.535l-1.528,2.413l-1.212-0.769l3.828-6.036l2.274,1.442c0.689,0.435,1.127,0.934,1.314,1.493
			c0.192,0.559,0.108,1.121-0.245,1.682c-0.201,0.313-0.446,0.527-0.756,0.649c-0.304,0.119-0.657,0.149-1.062,0.088
			c0.29,0.331,0.439,0.67,0.439,1.014c0,0.346-0.115,0.701-0.348,1.061l-0.277,0.445c-0.106,0.169-0.194,0.358-0.267,0.572
			c-0.071,0.212-0.078,0.399-0.022,0.558l-0.056,0.086l-1.251-0.788c-0.056-0.159-0.031-0.354,0.064-0.58
			c0.101-0.23,0.208-0.435,0.321-0.62l0.272-0.427c0.19-0.301,0.258-0.586,0.202-0.857c-0.063-0.272-0.238-0.502-0.537-0.69
			L89.609,28.535z M90.2,27.603l1.046,0.66c0.34,0.215,0.638,0.303,0.896,0.267c0.258-0.036,0.479-0.196,0.655-0.48
			c0.176-0.275,0.231-0.549,0.166-0.818c-0.064-0.27-0.256-0.506-0.583-0.712l-1.065-0.675L90.2,27.603z"/>
		<path fill="#FFFFFF" d="M100.726,32.958l-1.533-1.319l-3.941,4.578l-1.087-0.935l3.943-4.58l-1.527-1.313l0.725-0.837l4.142,3.567
			L100.726,32.958z"/>
		<path fill="#FFFFFF" d="M99.045,39.987l-0.975-1.054l5.24-4.855l0.977,1.05L99.045,39.987z"/>
		<path fill="#FFFFFF" d="M105.658,43.605l-1.771-2.416l-2.396,1.757l-0.847-1.156l5.762-4.226l2.913,3.975l-0.891,0.654
			l-2.065-2.818l-1.586,1.164l1.766,2.416L105.658,43.605z"/>
		<path fill="#FFFFFF" d="M105.247,48.729l-0.709-1.246l6.209-3.535l0.71,1.245L105.247,48.729z"/>
		<path fill="#FFFFFF" d="M111.017,53.684l-1.164-2.724l-1.872,0.799l1.356,3.184l-1.016,0.434l-1.92-4.502l6.576-2.803l1.915,4.493
			l-1.017,0.432l-1.352-3.173l-1.653,0.704l1.163,2.722L111.017,53.684z"/>
	</g>
	<g>
		<g>
			<g>
				<path fill="#FFFFFF" d="M18.315,73.14c1.623,0,3.003,0.572,4.14,1.708c0.276,0.309,0.403,0.673,0.379,1.096
					c-0.024,0.421-0.184,0.771-0.476,1.046c-0.292,0.274-0.665,0.423-1.121,0.439c-0.454,0.02-0.828-0.129-1.119-0.439
					c-0.504-0.453-1.104-0.681-1.803-0.681c-0.374,0-0.727,0.074-1.06,0.229c-0.332,0.154-0.625,0.359-0.876,0.611
					s-0.451,0.541-0.596,0.865c-0.146,0.324-0.22,0.664-0.22,1.021c0,0.373,0.073,0.732,0.22,1.062
					c0.145,0.33,0.348,0.626,0.608,0.876c0.259,0.253,0.552,0.448,0.876,0.597s0.674,0.211,1.046,0.196
					c0.714,0,1.315-0.219,1.803-0.658c0.292-0.322,0.666-0.487,1.119-0.487c0.454,0,0.829,0.163,1.121,0.487
					c0.147,0.131,0.26,0.284,0.341,0.461c0.081,0.181,0.125,0.366,0.133,0.561c0.008,0.191-0.02,0.388-0.085,0.572
					c-0.065,0.189-0.163,0.356-0.293,0.497c-0.567,0.572-1.193,0.999-1.875,1.292c-0.681,0.294-1.436,0.44-2.264,0.44
					c-0.812,0-1.575-0.155-2.288-0.476c-0.715-0.316-1.34-0.741-1.875-1.276c-0.536-0.533-0.961-1.165-1.278-1.875
					c-0.317-0.717-0.475-1.469-0.475-2.268c0-0.776,0.159-1.521,0.475-2.237c0.317-0.714,0.746-1.338,1.291-1.877
					c0.543-0.533,1.172-0.964,1.887-1.289C16.765,73.305,17.521,73.14,18.315,73.14z"/>
				<path fill="#FFFFFF" d="M25.621,73.116c0.421,0,0.795,0.159,1.12,0.478c0.325,0.316,0.487,0.7,0.487,1.156v4.283
					c0,0.373,0.073,0.732,0.219,1.062c0.147,0.33,0.341,0.622,0.584,0.865s0.531,0.441,0.864,0.587
					c0.333,0.145,0.686,0.219,1.059,0.219c0.357,0,0.699-0.064,1.023-0.195c0.324-0.127,0.614-0.31,0.864-0.534
					c0.251-0.229,0.451-0.506,0.597-0.827c0.145-0.324,0.218-0.674,0.218-1.048v-4.434c0-0.322,0.081-0.6,0.244-0.827
					c0.033-0.046,0.07-0.099,0.11-0.146c0.041-0.048,0.084-0.098,0.133-0.146c0.293-0.326,0.658-0.487,1.096-0.487
					s0.82,0.16,1.146,0.487c0.307,0.309,0.47,0.656,0.487,1.046v4.382c0,0.814-0.155,1.578-0.464,2.292
					c-0.309,0.714-0.73,1.34-1.266,1.874c-0.535,0.535-1.162,0.959-1.875,1.269c-0.714,0.309-1.485,0.46-2.314,0.46
					c-0.778,0.035-1.525-0.102-2.24-0.404c-0.715-0.298-1.344-0.707-1.887-1.236c-0.545-0.527-0.979-1.147-1.303-1.852
					c-0.324-0.707-0.487-1.447-0.487-2.229V74.73c0-0.421,0.15-0.79,0.45-1.106C24.788,73.301,25.166,73.134,25.621,73.116z"/>
				<path fill="#FFFFFF" d="M45.051,73.093c0.439,0,0.805,0.167,1.097,0.501c0.292,0.33,0.438,0.686,0.438,1.057
					c0,0.423-0.158,0.79-0.475,1.109c-0.317,0.318-0.67,0.476-1.061,0.476h-4.187c-0.194,0-0.344,0.058-0.45,0.169
					c-0.105,0.112-0.158,0.253-0.158,0.416c0,0.161,0.052,0.304,0.158,0.425c0.106,0.121,0.254,0.184,0.45,0.184h2.752
					c0.502,0,0.97,0.104,1.4,0.303c0.43,0.206,0.804,0.482,1.12,0.828c0.317,0.35,0.563,0.744,0.743,1.195
					c0.178,0.446,0.267,0.911,0.267,1.401c0,0.549-0.096,1.058-0.291,1.521c-0.196,0.463-0.463,0.859-0.804,1.192
					c-0.341,0.33-0.748,0.593-1.219,0.78c-0.471,0.189-0.989,0.277-1.557,0.277h-4.116c-0.421,0-0.78-0.146-1.072-0.439
					c-0.292-0.29-0.438-0.663-0.438-1.12c0-0.403,0.146-0.775,0.438-1.109c0.292-0.327,0.65-0.505,1.072-0.522h4.116
					c0.438,0,0.657-0.19,0.657-0.582c0-0.372-0.219-0.565-0.657-0.565h-2.679c-0.488,0-0.946-0.103-1.376-0.3
					c-0.43-0.203-0.803-0.477-1.119-0.821c-0.317-0.34-0.566-0.736-0.743-1.189c-0.178-0.455-0.269-0.945-0.269-1.463
					c0-0.487,0.093-0.954,0.28-1.401c0.188-0.446,0.443-0.841,0.767-1.181c0.324-0.342,0.707-0.615,1.145-0.816
					c0.438-0.201,0.918-0.313,1.437-0.329h4.334V73.093z"/>
				<path fill="#FFFFFF" d="M50.043,69.367c0.454,0,0.835,0.156,1.146,0.477c0.308,0.318,0.478,0.708,0.511,1.182v1.851h4.676
					c0.47,0,0.853,0.16,1.144,0.486c0.292,0.324,0.439,0.706,0.439,1.145c0,0.421-0.162,0.801-0.488,1.13
					c-0.324,0.334-0.691,0.501-1.095,0.501h-4.676v2.776c0,0.375,0.068,0.726,0.208,1.06c0.137,0.333,0.329,0.628,0.572,0.891
					c0.244,0.259,0.531,0.461,0.865,0.606c0.332,0.149,0.693,0.221,1.083,0.221c0.421,0,0.782-0.058,1.084-0.167
					c0.3-0.117,0.563-0.284,0.791-0.513c0.341-0.292,0.719-0.445,1.132-0.453c0.415-0.006,0.801,0.155,1.157,0.478
					c0.161,0.146,0.285,0.313,0.365,0.498c0.082,0.189,0.125,0.38,0.134,0.583c0.009,0.205-0.021,0.403-0.085,0.601
					c-0.065,0.19-0.17,0.359-0.316,0.507c-0.568,0.557-1.193,0.976-1.874,1.267c-0.683,0.294-1.413,0.439-2.192,0.439
					c-0.845,0-1.64-0.142-2.387-0.426c-0.746-0.282-1.404-0.688-1.973-1.213c-0.569-0.528-1.019-1.165-1.351-1.902
					c-0.333-0.741-0.508-1.563-0.524-2.472v-8.014c0-0.441,0.167-0.804,0.499-1.096C49.22,69.513,49.605,69.367,50.043,69.367z"/>
			</g>
		</g>
		<g>
			<g>
				<path fill="#FFFFFF" d="M66.318,73.13c0.795,0,1.547,0.151,2.265,0.464c0.714,0.306,1.339,0.729,1.873,1.263
					c0.537,0.534,0.963,1.164,1.281,1.876c0.316,0.715,0.476,1.479,0.476,2.292c0,0.812-0.149,1.575-0.451,2.289
					c-0.301,0.712-0.713,1.337-1.243,1.874c-0.526,0.534-1.153,0.955-1.877,1.265c-0.722,0.313-1.495,0.465-2.323,0.465
					c-1.005,0-1.915-0.206-2.726-0.609v2.8c0,0.421-0.153,0.787-0.463,1.095c-0.309,0.309-0.69,0.462-1.144,0.462
					c-0.406,0-0.767-0.142-1.084-0.426c-0.317-0.284-0.483-0.641-0.499-1.062v-8.154c0-0.797,0.159-1.552,0.475-2.268
					c0.316-0.716,0.743-1.337,1.278-1.875c0.536-0.536,1.161-0.962,1.875-1.278C64.744,73.286,65.505,73.13,66.318,73.13z
					 M63.59,79.024c0,0.405,0.072,0.775,0.219,1.105c0.146,0.334,0.344,0.621,0.597,0.87c0.251,0.239,0.543,0.432,0.876,0.568
					c0.334,0.142,0.679,0.207,1.037,0.207c0.392,0,0.745-0.071,1.072-0.219c0.321-0.148,0.611-0.344,0.854-0.597
					c0.242-0.252,0.433-0.545,0.572-0.875c0.137-0.336,0.21-0.688,0.21-1.06c0-0.374-0.075-0.728-0.221-1.062
					c-0.148-0.33-0.343-0.618-0.586-0.863c-0.241-0.244-0.529-0.437-0.851-0.574c-0.324-0.137-0.675-0.206-1.048-0.206
					c-0.39,0-0.75,0.075-1.084,0.221c-0.332,0.148-0.62,0.34-0.865,0.584c-0.243,0.242-0.435,0.527-0.572,0.854
					C63.66,78.301,63.59,78.65,63.59,79.024z"/>
				<path fill="#FFFFFF" d="M74.72,69.402c0.438,0,0.805,0.154,1.105,0.464c0.302,0.309,0.469,0.692,0.5,1.146v9.617
					c0,0.324,0.105,0.602,0.315,0.829c0.213,0.225,0.482,0.334,0.807,0.334c0.421,0,0.787,0.149,1.105,0.441
					c0.317,0.294,0.484,0.657,0.501,1.098c0,0.39-0.134,0.733-0.402,1.034c-0.271,0.303-0.615,0.486-1.037,0.551h-0.342
					c-0.571,0-1.105-0.117-1.606-0.354c-0.504-0.233-0.946-0.551-1.33-0.937c-0.379-0.392-0.683-0.845-0.903-1.368
					c-0.218-0.517-0.323-1.063-0.323-1.63V70.91c0.049-0.405,0.219-0.755,0.51-1.047S74.28,69.421,74.72,69.402z"/>
				<path fill="#FFFFFF" d="M85.969,73.13c0.73,0.082,1.418,0.292,2.057,0.635c0.642,0.34,1.194,0.775,1.655,1.303
					c0.466,0.528,0.829,1.126,1.098,1.8c0.271,0.677,0.402,1.383,0.402,2.135v4.307c0,0.436-0.161,0.813-0.487,1.123
					c-0.326,0.306-0.691,0.461-1.096,0.461c-0.57,0-1.021-0.26-1.362-0.78c-0.083,0.03-0.158,0.07-0.22,0.106
					c-0.066,0.044-0.132,0.079-0.197,0.109c-0.39,0.183-0.784,0.315-1.19,0.415c-0.424,0.096-0.869,0.146-1.337,0.146
					c-1.216,0-2.308-0.326-3.265-0.986s-1.675-1.505-2.143-2.547c-0.163-0.373-0.29-0.753-0.379-1.143
					c-0.088-0.39-0.134-0.796-0.134-1.213c0-0.426,0.046-0.829,0.134-1.223c0.089-0.39,0.216-0.771,0.379-1.143
					c0.47-1.056,1.184-1.907,2.143-2.557c0.957-0.65,2.049-0.975,3.265-0.975c0.128,0,0.245,0,0.356,0
					C85.745,73.107,85.854,73.114,85.969,73.13z M85.262,81.726c0.373,0,0.728-0.067,1.062-0.207
					c0.33-0.137,0.621-0.326,0.867-0.573c0.238-0.241,0.438-0.53,0.58-0.861c0.149-0.336,0.219-0.698,0.219-1.082
					c0-0.36-0.069-0.702-0.219-1.039c-0.146-0.33-0.344-0.626-0.597-0.874c-0.252-0.255-0.542-0.45-0.874-0.599
					c-0.331-0.147-0.679-0.219-1.038-0.219c-0.356,0-0.698,0.071-1.021,0.219c-0.324,0.148-0.612,0.344-0.864,0.599
					c-0.252,0.248-0.452,0.544-0.597,0.874c-0.147,0.333-0.22,0.678-0.22,1.039c0,0.373,0.076,0.724,0.23,1.058
					c0.153,0.333,0.356,0.617,0.609,0.867c0.252,0.24,0.539,0.435,0.866,0.58C84.588,81.653,84.922,81.726,85.262,81.726z"/>
				<path fill="#FFFFFF" d="M98.217,73.107c1.624,0,3.003,0.567,4.138,1.704c0.275,0.311,0.402,0.676,0.38,1.096
					c-0.025,0.423-0.186,0.773-0.48,1.044c-0.291,0.276-0.663,0.426-1.122,0.44c-0.449,0.017-0.826-0.132-1.12-0.44
					c-0.504-0.452-1.104-0.68-1.802-0.68c-0.372,0-0.726,0.077-1.06,0.232c-0.33,0.152-0.626,0.356-0.874,0.609
					c-0.253,0.252-0.452,0.538-0.6,0.865c-0.145,0.323-0.221,0.663-0.221,1.023c0,0.373,0.076,0.724,0.221,1.058
					c0.147,0.333,0.35,0.625,0.61,0.874c0.261,0.254,0.553,0.45,0.876,0.598c0.323,0.148,0.675,0.213,1.047,0.192
					c0.714,0,1.313-0.219,1.802-0.657c0.294-0.323,0.668-0.486,1.12-0.486c0.455,0,0.828,0.161,1.122,0.486
					c0.148,0.131,0.262,0.284,0.341,0.465c0.082,0.178,0.128,0.367,0.14,0.563c0.006,0.195-0.021,0.385-0.086,0.568
					c-0.064,0.19-0.162,0.359-0.294,0.505c-0.571,0.568-1.19,0.996-1.879,1.288c-0.681,0.294-1.431,0.439-2.264,0.439
					c-0.812,0-1.575-0.155-2.286-0.476c-0.717-0.315-1.342-0.741-1.879-1.276c-0.531-0.536-0.96-1.165-1.276-1.877
					c-0.318-0.713-0.476-1.469-0.476-2.264c0-0.784,0.157-1.528,0.476-2.243c0.316-0.716,0.745-1.337,1.292-1.875
					c0.543-0.536,1.169-0.966,1.887-1.29C96.665,73.27,97.422,73.107,98.217,73.107z"/>
				<path fill="#FFFFFF" d="M109.709,73.107c0.779,0,1.526,0.162,2.242,0.488c0.713,0.323,1.34,0.759,1.887,1.299
					c0.543,0.547,0.976,1.17,1.303,1.878c0.323,0.707,0.486,1.447,0.486,2.229c0,0.42-0.159,0.791-0.474,1.12
					c-0.318,0.323-0.71,0.479-1.181,0.46h-6.479c0.535,0.764,1.271,1.144,2.218,1.144c0.262,0,0.479-0.021,0.658-0.07
					c0.179-0.049,0.336-0.106,0.474-0.171c0.14-0.065,0.275-0.124,0.411-0.169c0.144-0.05,0.298-0.071,0.479-0.071
					c0.342,0.017,0.636,0.108,0.889,0.289c0.25,0.179,0.439,0.403,0.559,0.668c0.121,0.269,0.165,0.557,0.121,0.865
					c-0.04,0.31-0.184,0.593-0.426,0.855c-0.44,0.357-0.922,0.603-1.461,0.741c-0.535,0.142-1.104,0.22-1.706,0.233
					c-0.781,0.03-1.525-0.107-2.239-0.426s-1.341-0.745-1.888-1.291c-0.547-0.545-0.976-1.183-1.293-1.913
					c-0.315-0.731-0.475-1.489-0.475-2.265c0-0.763,0.159-1.503,0.475-2.217c0.319-0.715,0.742-1.344,1.28-1.891
					c0.534-0.54,1.16-0.976,1.878-1.298C108.162,73.27,108.913,73.107,109.709,73.107z M111.926,77.392
					c-0.275-0.338-0.6-0.611-0.973-0.814c-0.372-0.203-0.787-0.306-1.244-0.306c-0.472,0-0.888,0.103-1.254,0.306
					c-0.363,0.203-0.685,0.477-0.961,0.814H111.926z"/>
			</g>
		</g>
	</g>
	<polygon id="XMLID_7_" fill="#FFFFFF" points="64.001,38.764 66.906,45.686 74.385,46.311 68.703,51.212 70.419,58.521 
		64.001,54.631 57.582,58.521 59.298,51.212 53.614,46.311 61.095,45.686 	"/>
	<polygon id="XMLID_6_" fill="#FFFFFF" points="41.701,45.774 43.832,50.846 49.313,51.304 45.147,54.897 46.405,60.252 
		41.701,57.4 36.995,60.252 38.253,54.897 34.088,51.304 39.571,50.846 	"/>
	<polygon id="XMLID_4_" fill="#FFFFFF" points="86.302,45.774 84.166,50.846 78.691,51.304 82.853,54.897 81.596,60.252 
		86.302,57.4 91.007,60.252 89.747,54.897 93.911,51.304 88.431,50.846 	"/>
</g>
<polygon fill="#FFFFFF" stroke="#F5BD1A" stroke-width="2" stroke-linecap="round" stroke-linejoin="round" stroke-miterlimit="10" points="
	108.422,168.244 64.109,161.132 19.794,168.244 19.794,98.965 108.422,98.965 "/>
<rect x="78.928" y="133.215" fill="#FFFFFF" width="2.461" height="1.992"/>
</svg>
