<?xml version="1.0" encoding="utf-8"?>
<!-- Generator: Adobe Illustrator 16.0.0, SVG Export Plug-In . SVG Version: 6.00 Build 0)  -->
<!DOCTYPE svg PUBLIC "-//W3C//DTD SVG 1.1//EN" "http://www.w3.org/Graphics/SVG/1.1/DTD/svg11.dtd">
<svg version="1.1" id="Layer_1" xmlns="http://www.w3.org/2000/svg" xmlns:xlink="http://www.w3.org/1999/xlink" x="0px" y="0px"
	 width="82px" height="105px" viewBox="0 0 82 105" enable-background="new 0 0 82 105" xml:space="preserve">
<polygon fill="#C8C8C8" points="7.976,0.055 10.327,4.859 15.583,5.629 11.78,9.372 12.677,14.654 7.976,12.159 3.275,14.654 
	4.172,9.372 0.37,5.629 5.626,4.859 "/>
<polygon fill="#C8C8C8" points="24.538,0.055 26.888,4.859 32.145,5.629 28.341,9.372 29.24,14.654 24.538,12.159 19.837,14.654 
	20.735,9.372 16.932,5.629 22.188,4.859 "/>
<polygon fill="#C8C8C8" points="41.099,0.055 43.451,4.859 48.707,5.629 44.902,9.372 45.801,14.654 41.099,12.159 36.399,14.654 
	37.296,9.372 33.493,5.629 38.75,4.859 "/>
<polygon fill="#C8C8C8" points="57.66,0.055 60.014,4.859 65.27,5.629 61.467,9.372 62.361,14.654 57.66,12.159 52.961,14.654 
	53.857,9.372 50.055,5.629 55.311,4.859 "/>
<polygon fill="#C8C8C8" points="74.225,0.055 76.572,4.859 81.83,5.629 78.027,9.372 78.924,14.654 74.225,12.159 69.523,14.654 
	70.42,9.372 66.617,5.629 71.873,4.859 "/>
<polygon fill="#E12529" points="7.976,16.654 10.327,21.459 15.583,22.231 11.78,25.97 12.677,31.253 7.976,28.758 3.275,31.253 
	4.172,25.97 0.37,22.231 5.626,21.459 "/>
<polygon fill="#C8C8C8" points="24.538,16.654 26.888,21.459 32.145,22.231 28.341,25.97 29.24,31.253 24.538,28.758 19.837,31.253 
	20.735,25.97 16.932,22.231 22.188,21.459 "/>
<polygon fill="#C8C8C8" points="41.099,16.654 43.451,21.459 48.707,22.231 44.902,25.97 45.801,31.253 41.099,28.758 
	36.399,31.253 37.296,25.97 33.493,22.231 38.75,21.459 "/>
<polygon fill="#C8C8C8" points="57.66,16.654 60.014,21.459 65.27,22.231 61.467,25.97 62.361,31.253 57.66,28.758 52.961,31.253 
	53.857,25.97 50.055,22.231 55.311,21.459 "/>
<polygon fill="#C8C8C8" points="74.225,16.654 76.572,21.459 81.83,22.231 78.027,25.97 78.924,31.253 74.225,28.758 69.523,31.253 
	70.42,25.97 66.617,22.231 71.873,21.459 "/>
<polygon fill="#F47426" points="7.976,33.253 10.327,38.06 15.583,38.832 11.78,42.573 12.677,47.855 7.976,45.36 3.275,47.855 
	4.172,42.573 0.37,38.832 5.626,38.06 "/>
<polygon fill="#F47426" points="24.538,33.253 26.888,38.06 32.145,38.832 28.341,42.573 29.24,47.855 24.538,45.36 19.837,47.855 
	20.735,42.573 16.932,38.832 22.188,38.06 "/>
<polygon fill="#C8C8C8" points="41.099,33.253 43.451,38.06 48.707,38.832 44.902,42.573 45.801,47.855 41.099,45.36 36.399,47.855 
	37.296,42.573 33.493,38.832 38.75,38.06 "/>
<polygon fill="#C8C8C8" points="57.66,33.253 60.014,38.06 65.27,38.832 61.467,42.573 62.361,47.855 57.66,45.36 52.961,47.855 
	53.857,42.573 50.055,38.832 55.311,38.06 "/>
<polygon fill="#C8C8C8" points="74.225,33.253 76.572,38.06 81.83,38.832 78.027,42.573 78.924,47.855 74.225,45.36 69.523,47.855 
	70.42,42.573 66.617,38.832 71.873,38.06 "/>
<polygon fill="#F8CD1D" points="7.976,49.855 10.327,54.661 15.583,55.43 11.78,59.172 12.677,64.455 7.976,61.961 3.275,64.455 
	4.172,59.172 0.37,55.43 5.626,54.661 "/>
<polygon fill="#F8CD1D" points="24.538,49.855 26.888,54.661 32.145,55.43 28.341,59.172 29.24,64.455 24.538,61.961 19.837,64.455 
	20.735,59.172 16.932,55.43 22.188,54.661 "/>
<polygon fill="#F8CD1D" points="41.099,49.855 43.451,54.661 48.707,55.43 44.902,59.172 45.801,64.455 41.099,61.961 
	36.399,64.455 37.296,59.172 33.493,55.43 38.75,54.661 "/>
<polygon fill="#C8C8C8" points="57.66,49.855 60.014,54.661 65.27,55.43 61.467,59.172 62.361,64.455 57.66,61.961 52.961,64.455 
	53.857,59.172 50.055,55.43 55.311,54.661 "/>
<polygon fill="#C8C8C8" points="74.225,49.855 76.572,54.661 81.83,55.43 78.027,59.172 78.924,64.455 74.225,61.961 69.523,64.455 
	70.42,59.172 66.617,55.43 71.873,54.661 "/>
<polygon fill="#F8CD1D" points="7.976,66.456 10.327,71.266 15.583,72.034 11.78,75.775 12.677,81.059 7.976,78.563 3.275,81.059 
	4.172,75.775 0.37,72.034 5.626,71.266 "/>
<polygon fill="#F8CD1D" points="24.538,66.456 26.888,71.266 32.145,72.034 28.341,75.775 29.24,81.059 24.538,78.563 
	19.837,81.059 20.735,75.775 16.932,72.034 22.188,71.266 "/>
<polygon fill="#F8CD1D" points="41.099,66.456 43.451,71.266 48.707,72.034 44.902,75.775 45.801,81.059 41.099,78.563 
	36.399,81.059 37.296,75.775 33.493,72.034 38.75,71.266 "/>
<polygon fill="#F8CD1D" points="57.66,66.456 60.014,71.266 65.27,72.034 61.467,75.775 62.361,81.059 57.66,78.563 52.961,81.059 
	53.857,75.775 50.055,72.034 55.311,71.266 "/>
<polygon fill="#C8C8C8" points="74.225,66.456 76.572,71.266 81.83,72.034 78.027,75.775 78.924,81.059 74.225,78.563 
	69.523,81.059 70.42,75.775 66.617,72.034 71.873,71.266 "/>
<polygon fill="#F8CD1D" points="7.976,83.059 10.327,87.861 15.583,88.634 11.78,92.376 12.677,97.657 7.976,95.163 3.275,97.657 
	4.172,92.376 0.37,88.634 5.626,87.861 "/>
<polygon fill="#F8CD1D" points="24.538,83.059 26.888,87.861 32.145,88.634 28.341,92.376 29.24,97.657 24.538,95.163 
	19.837,97.657 20.735,92.376 16.932,88.634 22.188,87.861 "/>
<polygon fill="#F8CD1D" points="41.099,83.059 43.451,87.861 48.707,88.634 44.902,92.376 45.801,97.657 41.099,95.163 
	36.399,97.657 37.296,92.376 33.493,88.634 38.75,87.861 "/>
<polygon fill="#F8CD1D" points="57.66,83.059 60.014,87.861 65.27,88.634 61.467,92.376 62.361,97.657 57.66,95.163 52.961,97.657 
	53.857,92.376 50.055,88.634 55.311,87.861 "/>
<polygon fill="#F8CD1D" points="74.225,83.059 76.572,87.861 81.83,88.634 78.027,92.376 78.924,97.657 74.225,95.163 
	69.523,97.657 70.42,92.376 66.617,88.634 71.873,87.861 "/>
</svg>
